M48
INCH
T01C0.0400
T02C0.0650
T03C0.0300
T04C0.0250
%
T01
X+010666Y+012034
X+011666Y+012034
X+012666Y+012034
X+013666Y+012034
X+014666Y+012034
X+015666Y+012034
X+016666Y+012034
X+017666Y+012034
X+017666Y+006034
X+016666Y+006034
X+015666Y+006034
X+014666Y+006034
X+013666Y+006034
X+012666Y+006034
X+011666Y+006034
X+010666Y+006034
X+007666Y+006034
X+009666Y+012034
X+006666Y+006034
X+008666Y+012034
X+008666Y+006034
X+007666Y+012034
X+006666Y+012034
X+009666Y+006034
X+020166Y+025034
X+020166Y+018034
X+004166Y+025034
X+004166Y+018034
X+011666Y+024034
X+011666Y+019034
X+008666Y+019034
X+009666Y+019034
X+010666Y+019034
X+009666Y+024034
X+010666Y+024034
X+008666Y+024034
X+015666Y+024034
X+015666Y+019034
X+012666Y+019034
X+013666Y+019034
X+014666Y+019034
X+013666Y+024034
X+014666Y+024034
X+012666Y+024034
X+015666Y+013534
X+019666Y+013534
X+005666Y+025034
X+008666Y+025034
X+019666Y+015034
X+019666Y+016034
X+003666Y+008534
X+003666Y+009534
X+003666Y+010534
X+013666Y+001534
X+013666Y+002534
X+013666Y+003534
X+015666Y+001534
X+015666Y+002534
X+015666Y+003534
X+017666Y+001534
X+017666Y+002534
X+017666Y+003534
X+019986Y+008034
X+019986Y+009034
X+019986Y+010034
X+025166Y+009534
X+025166Y+008534
X+025166Y+007534
X+021916Y+010034
X+021916Y+011034
X+021916Y+012034
X+022666Y+017034
X+022666Y+018034
X+024166Y+015534
X+024166Y+014534
X+024166Y+013534
T02
X+018666Y+020534
X+018666Y+022534
X+005666Y+022534
X+005666Y+020534
T03
X+019166Y+019034
X+018166Y+019034
X+021166Y+021034
X+021166Y+022034
X+019166Y+024034
X+018166Y+024034
X+005166Y+024034
X+006166Y+024034
X+003166Y+022034
X+003166Y+021034
X+005166Y+019034
X+006166Y+019034
X+022666Y+008034
X+021666Y+008034
X+025289Y+011162
T04
X+025289Y+011949
M30
