G04 PROTEUS RS274X GERBER FILE*
%FSLAX26Y26*%
%MOIN*%
G01*
%ADD18C,0.008000*%
%ADD19C,0.005000*%
%ADD70C,0.002500*%
D18*
X+1953111Y+2286969D02*
X+1917756Y+2251614D01*
X+1953111Y+2251614D02*
X+1917756Y+2286969D01*
X+1953111Y+1286969D02*
X+1917756Y+1251614D01*
X+1953111Y+1251614D02*
X+1917756Y+1286969D01*
X+1953111Y+2086969D02*
X+1917756Y+2051614D01*
X+1953111Y+2051614D02*
X+1917756Y+2086969D01*
X+1953111Y+1986969D02*
X+1917756Y+1951614D01*
X+1953111Y+1951614D02*
X+1917756Y+1986969D01*
X+1953111Y+1886969D02*
X+1917756Y+1851614D01*
X+1953111Y+1851614D02*
X+1917756Y+1886969D01*
X+1953111Y+1786969D02*
X+1917756Y+1751614D01*
X+1953111Y+1751614D02*
X+1917756Y+1786969D01*
X+1953111Y+1686969D02*
X+1917756Y+1651614D01*
X+1953111Y+1651614D02*
X+1917756Y+1686969D01*
X+1953111Y+1586969D02*
X+1917756Y+1551614D01*
X+1953111Y+1551614D02*
X+1917756Y+1586969D01*
X+1953111Y+1486969D02*
X+1917756Y+1451614D01*
X+1953111Y+1451614D02*
X+1917756Y+1486969D01*
X+1953111Y+1386969D02*
X+1917756Y+1351614D01*
X+1953111Y+1351614D02*
X+1917756Y+1386969D01*
X+1373111Y+1386969D02*
X+1337756Y+1351614D01*
X+1373111Y+1351614D02*
X+1337756Y+1386969D01*
X+1373111Y+1486969D02*
X+1337756Y+1451614D01*
X+1373111Y+1451614D02*
X+1337756Y+1486969D01*
X+1373111Y+1586969D02*
X+1337756Y+1551614D01*
X+1373111Y+1551614D02*
X+1337756Y+1586969D01*
X+1373111Y+1686969D02*
X+1337756Y+1651614D01*
X+1373111Y+1651614D02*
X+1337756Y+1686969D01*
X+1373111Y+1786969D02*
X+1337756Y+1751614D01*
X+1373111Y+1751614D02*
X+1337756Y+1786969D01*
X+1373111Y+1886969D02*
X+1337756Y+1851614D01*
X+1373111Y+1851614D02*
X+1337756Y+1886969D01*
X+1373111Y+1986969D02*
X+1337756Y+1951614D01*
X+1373111Y+1951614D02*
X+1337756Y+1986969D01*
X+1373111Y+2086969D02*
X+1337756Y+2051614D01*
X+1373111Y+2051614D02*
X+1337756Y+2086969D01*
X+1373111Y+2186969D02*
X+1337756Y+2151614D01*
X+1373111Y+2151614D02*
X+1337756Y+2186969D01*
X+1373111Y+2286969D02*
X+1337756Y+2251614D01*
X+1373111Y+2251614D02*
X+1337756Y+2286969D01*
X+1373111Y+2386969D02*
X+1337756Y+2351614D01*
X+1373111Y+2351614D02*
X+1337756Y+2386969D01*
X+1953111Y+2386969D02*
X+1917756Y+2351614D01*
X+1953111Y+2351614D02*
X+1917756Y+2386969D01*
X+1373111Y+1286969D02*
X+1337756Y+1251614D01*
X+1373111Y+1251614D02*
X+1337756Y+1286969D01*
X+1953111Y+1086969D02*
X+1917756Y+1051614D01*
X+1953111Y+1051614D02*
X+1917756Y+1086969D01*
X+1953111Y+2186969D02*
X+1917756Y+2151614D01*
X+1953111Y+2151614D02*
X+1917756Y+2186969D01*
X+1373111Y+1186969D02*
X+1337756Y+1151614D01*
X+1373111Y+1151614D02*
X+1337756Y+1186969D01*
X+1953111Y+1186969D02*
X+1917756Y+1151614D01*
X+1953111Y+1151614D02*
X+1917756Y+1186969D01*
X+1373111Y+1086969D02*
X+1337756Y+1051614D01*
X+1373111Y+1051614D02*
X+1337756Y+1086969D01*
X+1373111Y+986969D02*
X+1337756Y+951614D01*
X+1373111Y+951614D02*
X+1337756Y+986969D01*
X+1953111Y+986969D02*
X+1917756Y+951614D01*
X+1953111Y+951614D02*
X+1917756Y+986969D01*
X+2524630Y+1785489D02*
X+2489275Y+1750133D01*
X+2524630Y+1750133D02*
X+2489275Y+1785489D01*
X+2424630Y+1785489D02*
X+2389275Y+1750133D01*
X+2424630Y+1750133D02*
X+2389275Y+1785489D01*
X+2324630Y+1785489D02*
X+2289275Y+1750133D01*
X+2324630Y+1750133D02*
X+2289275Y+1785489D01*
X+2524630Y+1886489D02*
X+2489275Y+1851133D01*
X+2524630Y+1851133D02*
X+2489275Y+1886489D01*
X+2424630Y+1886489D02*
X+2389275Y+1851133D01*
X+2424630Y+1851133D02*
X+2389275Y+1886489D01*
X+2324630Y+1886489D02*
X+2289275Y+1851133D01*
X+2324630Y+1851133D02*
X+2289275Y+1886489D01*
X+2524630Y+1987489D02*
X+2489275Y+1952133D01*
X+2524630Y+1952133D02*
X+2489275Y+1987489D01*
X+2424630Y+1987489D02*
X+2389275Y+1952133D01*
X+2424630Y+1952133D02*
X+2389275Y+1987489D01*
X+2324630Y+1987489D02*
X+2289275Y+1952133D01*
X+2324630Y+1952133D02*
X+2289275Y+1987489D01*
X+2524630Y+2086489D02*
X+2489275Y+2051133D01*
X+2524630Y+2051133D02*
X+2489275Y+2086489D01*
X+2424630Y+2086489D02*
X+2389275Y+2051133D01*
X+2424630Y+2051133D02*
X+2389275Y+2086489D01*
X+2324630Y+2086489D02*
X+2289275Y+2051133D01*
X+2324630Y+2051133D02*
X+2289275Y+2086489D01*
X+2392126Y+2869882D02*
X+2392126Y+2819882D01*
X+2417126Y+2844882D02*
X+2367126Y+2844882D01*
X+2409804Y+2862559D02*
X+2374448Y+2827204D01*
X+2409804Y+2827204D02*
X+2374448Y+2862559D01*
X+2392126Y+3069882D02*
X+2392126Y+3019882D01*
X+2417126Y+3044882D02*
X+2367126Y+3044882D01*
X+2409804Y+3062559D02*
X+2374448Y+3027204D01*
X+2409804Y+3027204D02*
X+2374448Y+3062559D01*
X+2027914Y+2761772D02*
X+1992559Y+2726417D01*
X+2027914Y+2726417D02*
X+1992559Y+2761772D01*
X+2027914Y+2861772D02*
X+1992559Y+2826417D01*
X+2027914Y+2826417D02*
X+1992559Y+2861772D01*
X+2027914Y+2961772D02*
X+1992559Y+2926417D01*
X+2027914Y+2926417D02*
X+1992559Y+2961772D01*
X+1366496Y+2961772D02*
X+1331141Y+2926417D01*
X+1366496Y+2926417D02*
X+1331141Y+2961772D01*
X+1366496Y+2861772D02*
X+1331141Y+2826417D01*
X+1366496Y+2826417D02*
X+1331141Y+2861772D01*
X+1366496Y+2761772D02*
X+1331141Y+2726417D01*
X+1366496Y+2726417D02*
X+1331141Y+2761772D01*
X+1158741Y+389213D02*
X+1123386Y+353857D01*
X+1158741Y+353857D02*
X+1123386Y+389213D01*
X+1158741Y+489213D02*
X+1123386Y+453857D01*
X+1158741Y+453857D02*
X+1123386Y+489213D01*
X+1158741Y+589213D02*
X+1123386Y+553857D01*
X+1158741Y+553857D02*
X+1123386Y+589213D01*
X+1158741Y+689213D02*
X+1123386Y+653857D01*
X+1158741Y+653857D02*
X+1123386Y+689213D01*
X+2625552Y+2525552D02*
X+2590196Y+2490196D01*
X+2625552Y+2490196D02*
X+2590196Y+2525552D01*
X+2525552Y+2525552D02*
X+2490196Y+2490196D01*
X+2525552Y+2490196D02*
X+2490196Y+2525552D01*
X+2425552Y+2525552D02*
X+2390196Y+2490196D01*
X+2425552Y+2490196D02*
X+2390196Y+2525552D01*
X+2506299Y+1518701D02*
X+2506299Y+1468701D01*
X+2531299Y+1493701D02*
X+2481299Y+1493701D01*
X+2523977Y+1511378D02*
X+2488622Y+1476023D01*
X+2523977Y+1476023D02*
X+2488622Y+1511378D01*
X+2506299Y+1118701D02*
X+2506299Y+1068701D01*
X+2531299Y+1093701D02*
X+2481299Y+1093701D01*
X+2523977Y+1111378D02*
X+2488622Y+1076023D01*
X+2523977Y+1076023D02*
X+2488622Y+1111378D01*
X+2344449Y+1109804D02*
X+2309094Y+1074448D01*
X+2344449Y+1074448D02*
X+2309094Y+1109804D01*
X+2244449Y+1109804D02*
X+2209094Y+1074448D01*
X+2244449Y+1074448D02*
X+2209094Y+1109804D01*
X+1039725Y+2286969D02*
X+1004370Y+2251614D01*
X+1039725Y+2251614D02*
X+1004370Y+2286969D01*
X+539725Y+2286969D02*
X+504370Y+2251614D01*
X+539725Y+2251614D02*
X+504370Y+2286969D01*
X+1039725Y+1986969D02*
X+1004370Y+1951614D01*
X+1039725Y+1951614D02*
X+1004370Y+1986969D01*
X+1039725Y+2086969D02*
X+1004370Y+2051614D01*
X+1039725Y+2051614D02*
X+1004370Y+2086969D01*
X+1039725Y+2186969D02*
X+1004370Y+2151614D01*
X+1039725Y+2151614D02*
X+1004370Y+2186969D01*
X+539725Y+2086969D02*
X+504370Y+2051614D01*
X+539725Y+2051614D02*
X+504370Y+2086969D01*
X+539725Y+2186969D02*
X+504370Y+2151614D01*
X+539725Y+2151614D02*
X+504370Y+2186969D01*
X+539725Y+1986969D02*
X+504370Y+1951614D01*
X+539725Y+1951614D02*
X+504370Y+1986969D01*
X+1039725Y+1882244D02*
X+1004370Y+1846889D01*
X+1039725Y+1846889D02*
X+1004370Y+1882244D01*
X+539725Y+1882244D02*
X+504370Y+1846889D01*
X+539725Y+1846889D02*
X+504370Y+1882244D01*
X+1039725Y+1582244D02*
X+1004370Y+1546889D01*
X+1039725Y+1546889D02*
X+1004370Y+1582244D01*
X+1039725Y+1682244D02*
X+1004370Y+1646889D01*
X+1039725Y+1646889D02*
X+1004370Y+1682244D01*
X+1039725Y+1782244D02*
X+1004370Y+1746889D01*
X+1039725Y+1746889D02*
X+1004370Y+1782244D01*
X+539725Y+1682244D02*
X+504370Y+1646889D01*
X+539725Y+1646889D02*
X+504370Y+1682244D01*
X+539725Y+1782244D02*
X+504370Y+1746889D01*
X+539725Y+1746889D02*
X+504370Y+1782244D01*
X+539725Y+1582244D02*
X+504370Y+1546889D01*
X+539725Y+1546889D02*
X+504370Y+1582244D01*
X+2136220Y+2522638D02*
X+2136220Y+2472638D01*
X+2161220Y+2497638D02*
X+2111220Y+2497638D01*
X+2153898Y+2515315D02*
X+2118543Y+2479960D01*
X+2153898Y+2479960D02*
X+2118543Y+2515315D01*
X+2136220Y+2422638D02*
X+2136220Y+2372638D01*
X+2161220Y+2397638D02*
X+2111220Y+2397638D01*
X+2153898Y+2415315D02*
X+2118543Y+2379960D01*
X+2153898Y+2379960D02*
X+2118543Y+2415315D01*
X+1596850Y+2967520D02*
X+1596850Y+2917520D01*
X+1621850Y+2942520D02*
X+1571850Y+2942520D01*
X+1596850Y+2888780D02*
X+1596850Y+2838780D01*
X+1621850Y+2863780D02*
X+1571850Y+2863780D01*
X+1069291Y+2837598D02*
X+1069291Y+2787598D01*
X+1094291Y+2812598D02*
X+1044291Y+2812598D01*
X+1086969Y+2830276D02*
X+1051614Y+2794921D01*
X+1086969Y+2794921D02*
X+1051614Y+2830276D01*
X+1069291Y+2737598D02*
X+1069291Y+2687598D01*
X+1094291Y+2712598D02*
X+1044291Y+2712598D01*
X+1086969Y+2730276D02*
X+1051614Y+2694921D01*
X+1086969Y+2694921D02*
X+1051614Y+2730276D01*
X+818898Y+2479331D02*
X+818898Y+2429331D01*
X+843898Y+2454331D02*
X+793898Y+2454331D01*
X+836575Y+2472008D02*
X+801220Y+2436653D01*
X+836575Y+2436653D02*
X+801220Y+2472008D01*
X+718898Y+2479331D02*
X+718898Y+2429331D01*
X+743898Y+2454331D02*
X+693898Y+2454331D01*
X+736575Y+2472008D02*
X+701220Y+2436653D01*
X+736575Y+2436653D02*
X+701220Y+2472008D01*
X+451181Y+2837598D02*
X+451181Y+2787598D01*
X+476181Y+2812598D02*
X+426181Y+2812598D01*
X+468859Y+2830276D02*
X+433504Y+2794921D01*
X+468859Y+2794921D02*
X+433504Y+2830276D01*
X+451181Y+2737598D02*
X+451181Y+2687598D01*
X+476181Y+2712598D02*
X+426181Y+2712598D01*
X+468859Y+2730276D02*
X+433504Y+2694921D01*
X+468859Y+2694921D02*
X+433504Y+2730276D01*
X+415748Y+1036811D02*
X+415748Y+986811D01*
X+440748Y+1011811D02*
X+390748Y+1011811D01*
X+433426Y+1029489D02*
X+398070Y+994133D01*
X+433426Y+994133D02*
X+398070Y+1029489D01*
X+415748Y+1136811D02*
X+415748Y+1086811D01*
X+440748Y+1111811D02*
X+390748Y+1111811D01*
X+433426Y+1129489D02*
X+398070Y+1094133D01*
X+433426Y+1094133D02*
X+398070Y+1129489D01*
X+711024Y+1376969D02*
X+711024Y+1326969D01*
X+736024Y+1351969D02*
X+686024Y+1351969D01*
X+728701Y+1369646D02*
X+693346Y+1334291D01*
X+728701Y+1334291D02*
X+693346Y+1369646D01*
X+811024Y+1376969D02*
X+811024Y+1326969D01*
X+836024Y+1351969D02*
X+786024Y+1351969D01*
X+828701Y+1369646D02*
X+793346Y+1334291D01*
X+828701Y+1334291D02*
X+793346Y+1369646D01*
X+1108661Y+1036811D02*
X+1108661Y+986811D01*
X+1133661Y+1011811D02*
X+1083661Y+1011811D01*
X+1126339Y+1029489D02*
X+1090984Y+994133D01*
X+1126339Y+994133D02*
X+1090984Y+1029489D01*
X+1108661Y+1136811D02*
X+1108661Y+1086811D01*
X+1133661Y+1111811D02*
X+1083661Y+1111811D01*
X+1126339Y+1129489D02*
X+1090984Y+1094133D01*
X+1126339Y+1094133D02*
X+1090984Y+1129489D01*
X+376378Y+1888780D02*
X+376378Y+1838780D01*
X+401378Y+1863780D02*
X+351378Y+1863780D01*
X+394056Y+1881457D02*
X+358700Y+1846102D01*
X+394056Y+1846102D02*
X+358700Y+1881457D01*
X+376378Y+1588780D02*
X+376378Y+1538780D01*
X+401378Y+1563780D02*
X+351378Y+1563780D01*
X+394056Y+1581457D02*
X+358700Y+1546102D01*
X+394056Y+1546102D02*
X+358700Y+1581457D01*
X+376378Y+2294291D02*
X+376378Y+2244291D01*
X+401378Y+2269291D02*
X+351378Y+2269291D01*
X+394056Y+2286969D02*
X+358700Y+2251614D01*
X+394056Y+2251614D02*
X+358700Y+2286969D01*
X+376378Y+1994291D02*
X+376378Y+1944291D01*
X+401378Y+1969291D02*
X+351378Y+1969291D01*
X+394056Y+1986969D02*
X+358700Y+1951614D01*
X+394056Y+1951614D02*
X+358700Y+1986969D01*
X+671654Y+2731299D02*
X+671654Y+2681299D01*
X+696654Y+2706299D02*
X+646654Y+2706299D01*
X+689331Y+2723977D02*
X+653976Y+2688622D01*
X+689331Y+2688622D02*
X+653976Y+2723977D01*
X+871654Y+2731299D02*
X+871654Y+2681299D01*
X+896654Y+2706299D02*
X+846654Y+2706299D01*
X+889331Y+2723977D02*
X+853976Y+2688622D01*
X+889331Y+2688622D02*
X+853976Y+2723977D01*
X+863780Y+1136811D02*
X+863780Y+1086811D01*
X+888780Y+1111811D02*
X+838780Y+1111811D01*
X+881457Y+1129489D02*
X+846102Y+1094133D01*
X+881457Y+1094133D02*
X+846102Y+1129489D01*
X+663780Y+1136811D02*
X+663780Y+1086811D01*
X+688780Y+1111811D02*
X+638780Y+1111811D01*
X+681457Y+1129489D02*
X+646102Y+1094133D01*
X+681457Y+1094133D02*
X+646102Y+1129489D01*
X+2524630Y+1685489D02*
X+2489275Y+1650133D01*
X+2524630Y+1650133D02*
X+2489275Y+1685489D01*
X+2424630Y+1685489D02*
X+2389275Y+1650133D01*
X+2424630Y+1650133D02*
X+2389275Y+1685489D01*
X+2324630Y+1685489D02*
X+2289275Y+1650133D01*
X+2324630Y+1650133D02*
X+2289275Y+1685489D01*
X+3937Y+2496D02*
X+2997504Y+2496D01*
X+2997504Y+3540811D01*
X+3937Y+3540811D01*
X+3937Y+2496D01*
X+581102Y+1828346D02*
X+962992Y+1828346D01*
X+962992Y+2005512D01*
X+581102Y+2005512D01*
X+581102Y+1828346D01*
X+2818897Y+2318898D02*
X+2818608Y+2325636D01*
X+2816258Y+2339113D01*
X+2811325Y+2352590D01*
X+2803205Y+2366067D01*
X+2790866Y+2379136D01*
X+2777389Y+2388279D01*
X+2763912Y+2393969D01*
X+2750435Y+2396964D01*
X+2740157Y+2397638D01*
X+2661417Y+2318898D02*
X+2661706Y+2325636D01*
X+2664056Y+2339113D01*
X+2668989Y+2352590D01*
X+2677109Y+2366067D01*
X+2689448Y+2379136D01*
X+2702925Y+2388279D01*
X+2716402Y+2393969D01*
X+2729879Y+2396964D01*
X+2740157Y+2397638D01*
X+2661417Y+2318898D02*
X+2661706Y+2312160D01*
X+2664056Y+2298683D01*
X+2668989Y+2285206D01*
X+2677109Y+2271729D01*
X+2689448Y+2258660D01*
X+2702925Y+2249517D01*
X+2716402Y+2243827D01*
X+2729879Y+2240832D01*
X+2740157Y+2240158D01*
X+2818897Y+2318898D02*
X+2818608Y+2312160D01*
X+2816258Y+2298683D01*
X+2811325Y+2285206D01*
X+2803205Y+2271729D01*
X+2790866Y+2258660D01*
X+2777389Y+2249517D01*
X+2763912Y+2243827D01*
X+2750435Y+2240832D01*
X+2740157Y+2240158D01*
X+2817323Y+1224409D02*
X+2817034Y+1231147D01*
X+2814684Y+1244624D01*
X+2809751Y+1258101D01*
X+2801631Y+1271578D01*
X+2789292Y+1284647D01*
X+2775815Y+1293790D01*
X+2762338Y+1299480D01*
X+2748861Y+1302475D01*
X+2738583Y+1303149D01*
X+2659843Y+1224409D02*
X+2660132Y+1231147D01*
X+2662482Y+1244624D01*
X+2667415Y+1258101D01*
X+2675535Y+1271578D01*
X+2687874Y+1284647D01*
X+2701351Y+1293790D01*
X+2714828Y+1299480D01*
X+2728305Y+1302475D01*
X+2738583Y+1303149D01*
X+2659843Y+1224409D02*
X+2660132Y+1217671D01*
X+2662482Y+1204194D01*
X+2667415Y+1190717D01*
X+2675535Y+1177240D01*
X+2687874Y+1164171D01*
X+2701351Y+1155028D01*
X+2714828Y+1149338D01*
X+2728305Y+1146343D01*
X+2738583Y+1145669D01*
X+2817323Y+1224409D02*
X+2817034Y+1217671D01*
X+2814684Y+1204194D01*
X+2809751Y+1190717D01*
X+2801631Y+1177240D01*
X+2789292Y+1164171D01*
X+2775815Y+1155028D01*
X+2762338Y+1149338D01*
X+2748861Y+1146343D01*
X+2738583Y+1145669D01*
D19*
X+2054504Y-502504D02*
X+3007504Y-502504D01*
X+3007504Y-107504D01*
X+2054504Y-107504D01*
X+2054504Y-502504D01*
D70*
X+2823503Y-107504D02*
X+2823503Y-502504D01*
X+2591503Y-107504D02*
X+2591503Y-502504D01*
X+2263503Y-107504D02*
X+2263503Y-502504D01*
X+3007504Y-215004D02*
X+2054504Y-215004D01*
X+3007504Y-310004D02*
X+2054504Y-310004D01*
X+3007504Y-405004D02*
X+2054504Y-405004D01*
D19*
X+2841004Y-172004D02*
X+2847004Y-178004D01*
X+2871004Y-178004D01*
X+2877004Y-172004D01*
X+2877004Y-166004D01*
X+2871004Y-160004D01*
X+2847004Y-160004D01*
X+2841004Y-154004D01*
X+2841004Y-148004D01*
X+2847004Y-142004D01*
X+2871004Y-142004D01*
X+2877004Y-148004D01*
X+2925004Y-142004D02*
X+2889004Y-178004D01*
X+2889004Y-142004D02*
X+2907004Y-160004D01*
X+2937004Y-178004D02*
X+2937004Y-142004D01*
X+2955004Y-160004D01*
X+2973004Y-142004D01*
X+2973004Y-178004D01*
X+2609004Y-172004D02*
X+2615004Y-178004D01*
X+2639004Y-178004D01*
X+2645004Y-172004D01*
X+2645004Y-166004D01*
X+2639004Y-160004D01*
X+2615004Y-160004D01*
X+2609004Y-154004D01*
X+2609004Y-148004D01*
X+2615004Y-142004D01*
X+2639004Y-142004D01*
X+2645004Y-148004D01*
X+2663004Y-142004D02*
X+2687004Y-142004D01*
X+2675004Y-142004D02*
X+2675004Y-178004D01*
X+2663004Y-178004D02*
X+2687004Y-178004D01*
X+2705004Y-142004D02*
X+2741004Y-142004D01*
X+2705004Y-178004D01*
X+2741004Y-178004D01*
X+2789004Y-178004D02*
X+2753004Y-178004D01*
X+2753004Y-142004D01*
X+2789004Y-142004D01*
X+2753004Y-160004D02*
X+2777004Y-160004D01*
X+2281004Y-178004D02*
X+2281004Y-142004D01*
X+2311004Y-142004D01*
X+2317004Y-148004D01*
X+2317004Y-154004D01*
X+2311004Y-160004D01*
X+2281004Y-160004D01*
X+2329004Y-142004D02*
X+2329004Y-178004D01*
X+2365004Y-178004D01*
X+2377004Y-178004D02*
X+2377004Y-154004D01*
X+2389004Y-142004D01*
X+2401004Y-142004D01*
X+2413004Y-154004D01*
X+2413004Y-178004D01*
X+2377004Y-166004D02*
X+2413004Y-166004D01*
X+2425004Y-142004D02*
X+2461004Y-142004D01*
X+2443004Y-142004D02*
X+2443004Y-178004D01*
X+2509004Y-178004D02*
X+2473004Y-178004D01*
X+2473004Y-142004D01*
X+2509004Y-142004D01*
X+2473004Y-160004D02*
X+2497004Y-160004D01*
X+2521004Y-178004D02*
X+2521004Y-142004D01*
X+2545004Y-142004D01*
X+2557004Y-154004D01*
X+2557004Y-166004D01*
X+2545004Y-178004D01*
X+2521004Y-178004D01*
X+2097004Y-154004D02*
X+2109004Y-142004D01*
X+2121004Y-142004D01*
X+2133004Y-154004D01*
X+2133004Y-166004D01*
X+2121004Y-178004D01*
X+2109004Y-178004D01*
X+2097004Y-166004D01*
X+2097004Y-154004D01*
X+2121004Y-166004D02*
X+2133004Y-178004D01*
X+2145004Y-142004D02*
X+2181004Y-142004D01*
X+2163004Y-142004D02*
X+2163004Y-178004D01*
X+2229004Y-142004D02*
X+2193004Y-178004D01*
X+2193004Y-142004D02*
X+2211004Y-160004D01*
D18*
X+2910504Y-235004D02*
X+2910504Y-285004D01*
X+2935504Y-260004D02*
X+2885504Y-260004D01*
D19*
X+2638504Y-250004D02*
X+2643504Y-245004D01*
X+2658504Y-245004D01*
X+2663504Y-250004D01*
X+2663504Y-255004D01*
X+2658504Y-260004D01*
X+2663504Y-265004D01*
X+2663504Y-270004D01*
X+2658504Y-275004D01*
X+2643504Y-275004D01*
X+2638504Y-270004D01*
X+2648504Y-260004D02*
X+2658504Y-260004D01*
X+2673504Y-270004D02*
X+2673504Y-250004D01*
X+2678504Y-245004D01*
X+2698504Y-245004D01*
X+2703504Y-250004D01*
X+2703504Y-270004D01*
X+2698504Y-275004D01*
X+2678504Y-275004D01*
X+2673504Y-270004D01*
X+2673504Y-275004D02*
X+2703504Y-245004D01*
X+2718504Y-245004D02*
X+2718504Y-270004D01*
X+2723504Y-275004D01*
X+2738504Y-275004D01*
X+2743504Y-270004D01*
X+2713504Y-255004D02*
X+2738504Y-255004D01*
X+2783504Y-275004D02*
X+2783504Y-260004D01*
X+2778504Y-255004D01*
X+2758504Y-255004D01*
X+2753504Y-260004D01*
X+2753504Y-245004D02*
X+2753504Y-275004D01*
X+2466504Y-245004D02*
X+2436504Y-275004D01*
X+2436504Y-245004D02*
X+2451504Y-260004D01*
X+2506504Y-275004D02*
X+2476504Y-275004D01*
X+2476504Y-245004D01*
X+2506504Y-245004D01*
X+2476504Y-260004D02*
X+2496504Y-260004D01*
X+2516504Y-270004D02*
X+2521504Y-275004D01*
X+2541504Y-275004D01*
X+2546504Y-270004D01*
X+2546504Y-265004D01*
X+2541504Y-260004D01*
X+2521504Y-260004D01*
X+2516504Y-255004D01*
X+2516504Y-250004D01*
X+2521504Y-245004D01*
X+2541504Y-245004D01*
X+2546504Y-250004D01*
X+2188504Y-250004D02*
X+2193504Y-245004D01*
X+2208504Y-245004D01*
X+2213504Y-250004D01*
X+2213504Y-255004D01*
X+2208504Y-260004D01*
X+2193504Y-260004D01*
X+2188504Y-265004D01*
X+2188504Y-275004D01*
X+2213504Y-275004D01*
D18*
X+2928181Y-337326D02*
X+2892826Y-372681D01*
X+2928181Y-372681D02*
X+2892826Y-337326D01*
D19*
X+2663504Y-360004D02*
X+2633504Y-360004D01*
X+2653504Y-340004D01*
X+2653504Y-370004D01*
X+2673504Y-365004D02*
X+2673504Y-345004D01*
X+2678504Y-340004D01*
X+2698504Y-340004D01*
X+2703504Y-345004D01*
X+2703504Y-365004D01*
X+2698504Y-370004D01*
X+2678504Y-370004D01*
X+2673504Y-365004D01*
X+2673504Y-370004D02*
X+2703504Y-340004D01*
X+2718504Y-340004D02*
X+2718504Y-365004D01*
X+2723504Y-370004D01*
X+2738504Y-370004D01*
X+2743504Y-365004D01*
X+2713504Y-350004D02*
X+2738504Y-350004D01*
X+2783504Y-370004D02*
X+2783504Y-355004D01*
X+2778504Y-350004D01*
X+2758504Y-350004D01*
X+2753504Y-355004D01*
X+2753504Y-340004D02*
X+2753504Y-370004D01*
X+2466504Y-340004D02*
X+2436504Y-370004D01*
X+2436504Y-340004D02*
X+2451504Y-355004D01*
X+2506504Y-370004D02*
X+2476504Y-370004D01*
X+2476504Y-340004D01*
X+2506504Y-340004D01*
X+2476504Y-355004D02*
X+2496504Y-355004D01*
X+2516504Y-365004D02*
X+2521504Y-370004D01*
X+2541504Y-370004D01*
X+2546504Y-365004D01*
X+2546504Y-360004D01*
X+2541504Y-355004D01*
X+2521504Y-355004D01*
X+2516504Y-350004D01*
X+2516504Y-345004D01*
X+2521504Y-340004D01*
X+2541504Y-340004D01*
X+2546504Y-345004D01*
X+2148504Y-340004D02*
X+2173504Y-340004D01*
X+2173504Y-345004D01*
X+2148504Y-370004D01*
X+2213504Y-345004D02*
X+2208504Y-340004D01*
X+2193504Y-340004D01*
X+2188504Y-345004D01*
X+2188504Y-365004D01*
X+2193504Y-370004D01*
X+2208504Y-370004D01*
X+2213504Y-365004D01*
X+2213504Y-360004D01*
X+2208504Y-355004D01*
X+2188504Y-355004D01*
D18*
X+2910504Y-425004D02*
X+2910504Y-475004D01*
X+2935504Y-450004D02*
X+2885504Y-450004D01*
X+2928181Y-432326D02*
X+2892826Y-467681D01*
X+2928181Y-467681D02*
X+2892826Y-432326D01*
D19*
X+2663504Y-435004D02*
X+2638504Y-435004D01*
X+2638504Y-445004D01*
X+2658504Y-445004D01*
X+2663504Y-450004D01*
X+2663504Y-460004D01*
X+2658504Y-465004D01*
X+2643504Y-465004D01*
X+2638504Y-460004D01*
X+2673504Y-460004D02*
X+2673504Y-440004D01*
X+2678504Y-435004D01*
X+2698504Y-435004D01*
X+2703504Y-440004D01*
X+2703504Y-460004D01*
X+2698504Y-465004D01*
X+2678504Y-465004D01*
X+2673504Y-460004D01*
X+2673504Y-465004D02*
X+2703504Y-435004D01*
X+2718504Y-435004D02*
X+2718504Y-460004D01*
X+2723504Y-465004D01*
X+2738504Y-465004D01*
X+2743504Y-460004D01*
X+2713504Y-445004D02*
X+2738504Y-445004D01*
X+2783504Y-465004D02*
X+2783504Y-450004D01*
X+2778504Y-445004D01*
X+2758504Y-445004D01*
X+2753504Y-450004D01*
X+2753504Y-435004D02*
X+2753504Y-465004D01*
X+2466504Y-435004D02*
X+2436504Y-465004D01*
X+2436504Y-435004D02*
X+2451504Y-450004D01*
X+2506504Y-465004D02*
X+2476504Y-465004D01*
X+2476504Y-435004D01*
X+2506504Y-435004D01*
X+2476504Y-450004D02*
X+2496504Y-450004D01*
X+2516504Y-460004D02*
X+2521504Y-465004D01*
X+2541504Y-465004D01*
X+2546504Y-460004D01*
X+2546504Y-455004D01*
X+2541504Y-450004D01*
X+2521504Y-450004D01*
X+2516504Y-445004D01*
X+2516504Y-440004D01*
X+2521504Y-435004D01*
X+2541504Y-435004D01*
X+2546504Y-440004D01*
X+2148504Y-440004D02*
X+2153504Y-435004D01*
X+2168504Y-435004D01*
X+2173504Y-440004D01*
X+2173504Y-445004D01*
X+2168504Y-450004D01*
X+2153504Y-450004D01*
X+2148504Y-455004D01*
X+2148504Y-465004D01*
X+2173504Y-465004D01*
X+2213504Y-440004D02*
X+2208504Y-435004D01*
X+2193504Y-435004D01*
X+2188504Y-440004D01*
X+2188504Y-460004D01*
X+2193504Y-465004D01*
X+2208504Y-465004D01*
X+2213504Y-460004D01*
X+2213504Y-455004D01*
X+2208504Y-450004D01*
X+2188504Y-450004D01*
M02*
