G04 PROTEUS RS274X GERBER FILE*
%FSLAX26Y26*%
%MOIN*%
G01*
%ADD10C,0.080000*%
%ADD11C,0.060000*%
%ADD12C,0.090000*%
%ADD13C,0.020000*%
%ADD14C,0.010000*%
%ADD15R,0.080000X0.080000*%
%ADD16R,0.090000X0.090000*%
%ADD17R,0.060000X0.060000*%
%ADD18C,0.008000*%
G36*
X+32937Y+31496D02*
X+2968504Y+31496D01*
X+2968504Y+3511811D01*
X+32937Y+3511811D01*
X+32937Y+31496D01*
G37*
%LPC*%
G36*
X+1288819Y+3004094D02*
X+333415Y+3004094D01*
X+166772Y+2837451D01*
X+166772Y+2613041D01*
X+157798Y+2604068D01*
X+157798Y+1916793D01*
X+270811Y+1803780D01*
X+436378Y+1803780D01*
X+436378Y+1909292D01*
X+462048Y+1909292D01*
X+462048Y+1624567D01*
X+352313Y+1624567D01*
X+351526Y+1623779D01*
X+316378Y+1623779D01*
X+316378Y+1503780D01*
X+436378Y+1503780D01*
X+436378Y+1504567D01*
X+582047Y+1504567D01*
X+582047Y+1604536D01*
X+617438Y+1604536D01*
X+651024Y+1570950D01*
X+651024Y+1376821D01*
X+603780Y+1329577D01*
X+603780Y+1176811D01*
X+598780Y+1176811D01*
X+598780Y+1171811D01*
X+355748Y+1171811D01*
X+355748Y+951811D01*
X+1168661Y+951811D01*
X+1168661Y+1171811D01*
X+1048662Y+1171811D01*
X+986220Y+1171810D01*
X+928779Y+1171811D01*
X+928779Y+1176811D01*
X+923779Y+1176811D01*
X+923779Y+1324065D01*
X+871023Y+1376821D01*
X+871023Y+1713829D01*
X+785506Y+1799346D01*
X+962048Y+1799346D01*
X+962048Y+1504567D01*
X+1082047Y+1504567D01*
X+1082047Y+1604567D01*
X+1246012Y+1604567D01*
X+1250617Y+1609172D01*
X+1295433Y+1609172D01*
X+1295433Y+909292D01*
X+1415433Y+909292D01*
X+1415433Y+1309292D01*
X+1420817Y+1309292D01*
X+1438426Y+1291683D01*
X+1438426Y+844923D01*
X+1324569Y+731066D01*
X+1201063Y+731066D01*
X+1201063Y+731535D01*
X+1081064Y+731535D01*
X+1081064Y+311535D01*
X+1201063Y+311535D01*
X+1201063Y+312470D01*
X+1576678Y+312470D01*
X+1845826Y+581618D01*
X+1845826Y+1177510D01*
X+1875433Y+1207117D01*
X+1875433Y+909292D01*
X+1995433Y+909292D01*
X+1995433Y+1208241D01*
X+2241666Y+1208241D01*
X+2467126Y+1433701D01*
X+2566299Y+1433701D01*
X+2566299Y+1468848D01*
X+2566952Y+1469502D01*
X+2566952Y+2053074D01*
X+2579302Y+2082889D01*
X+2567874Y+2094317D01*
X+2567874Y+2447874D01*
X+2667874Y+2447874D01*
X+2667874Y+2647273D01*
X+2589135Y+2726012D01*
X+2218317Y+2726012D01*
X+2076221Y+2583915D01*
X+2076221Y+2557637D01*
X+1509651Y+2557637D01*
X+1409596Y+2657693D01*
X+1409596Y+2768170D01*
X+1408819Y+2768947D01*
X+1408819Y+2892520D01*
X+1545851Y+2892520D01*
X+1545851Y+2812780D01*
X+1647850Y+2812780D01*
X+1647850Y+2892520D01*
X+1723860Y+2892520D01*
X+1725435Y+2894095D01*
X+1950237Y+2894095D01*
X+1950237Y+2684095D01*
X+2070236Y+2684095D01*
X+2070236Y+2784882D01*
X+2327126Y+2784882D01*
X+2327126Y+2779882D01*
X+2457126Y+2779882D01*
X+2457126Y+2909881D01*
X+2327126Y+2909881D01*
X+2327126Y+2904881D01*
X+2070236Y+2904881D01*
X+2070236Y+3004094D01*
X+1950237Y+3004094D01*
X+1950237Y+2994094D01*
X+1577715Y+2994094D01*
X+1577141Y+2993519D01*
X+1545851Y+2993519D01*
X+1545851Y+2992519D01*
X+1408819Y+2992519D01*
X+1408819Y+3004094D01*
X+1288819Y+3004094D01*
X+1288819Y+3004094D01*
G37*
G36*
X+2719121Y+2424424D02*
X+2715784Y+2424043D01*
X+2712623Y+2422910D01*
X+2692068Y+2415541D01*
X+2670248Y+2401173D01*
X+2663208Y+2393456D01*
X+2651593Y+2380724D01*
X+2637600Y+2353008D01*
X+2636194Y+2344389D01*
X+2632034Y+2318898D01*
X+2632796Y+2314228D01*
X+2637600Y+2284787D01*
X+2639614Y+2280798D01*
X+2651593Y+2257072D01*
X+2670248Y+2236622D01*
X+2692068Y+2222255D01*
X+2715784Y+2213752D01*
X+2719121Y+2213371D01*
X+2740157Y+2210969D01*
X+2764531Y+2213752D01*
X+2767692Y+2214885D01*
X+2788247Y+2222255D01*
X+2810067Y+2236622D01*
X+2817107Y+2244339D01*
X+2828722Y+2257072D01*
X+2842715Y+2284787D01*
X+2844121Y+2293407D01*
X+2848281Y+2318898D01*
X+2847519Y+2323568D01*
X+2842715Y+2353008D01*
X+2840701Y+2356998D01*
X+2828722Y+2380724D01*
X+2810067Y+2401173D01*
X+2788247Y+2415541D01*
X+2764531Y+2424043D01*
X+2761194Y+2424424D01*
X+2740157Y+2426826D01*
X+2719121Y+2424424D01*
G37*
G36*
X+2717546Y+1329936D02*
X+2714209Y+1329555D01*
X+2711048Y+1328422D01*
X+2690493Y+1321052D01*
X+2668673Y+1306685D01*
X+2661633Y+1298968D01*
X+2650018Y+1286235D01*
X+2636025Y+1258520D01*
X+2634619Y+1249900D01*
X+2630459Y+1224409D01*
X+2631221Y+1219739D01*
X+2636025Y+1190299D01*
X+2638039Y+1186309D01*
X+2650018Y+1162583D01*
X+2668673Y+1142134D01*
X+2690493Y+1127767D01*
X+2714209Y+1119264D01*
X+2717546Y+1118883D01*
X+2738583Y+1116481D01*
X+2762956Y+1119264D01*
X+2766117Y+1120397D01*
X+2786672Y+1127767D01*
X+2808493Y+1142134D01*
X+2815532Y+1149851D01*
X+2827147Y+1162583D01*
X+2841140Y+1190299D01*
X+2842546Y+1198919D01*
X+2846706Y+1224409D01*
X+2845944Y+1229080D01*
X+2841140Y+1258520D01*
X+2839126Y+1262509D01*
X+2827147Y+1286235D01*
X+2808493Y+1306685D01*
X+2786672Y+1321052D01*
X+2762956Y+1329555D01*
X+2759619Y+1329936D01*
X+2738583Y+1332338D01*
X+2717546Y+1329936D01*
G37*
G36*
X+2327126Y+3109881D02*
X+2457126Y+3109881D01*
X+2457126Y+2979882D01*
X+2327126Y+2979882D01*
X+2327126Y+3109881D01*
G37*
G36*
X+2301919Y+1152126D02*
X+2166772Y+1152126D01*
X+2166772Y+1032126D01*
X+2386771Y+1032126D01*
X+2386771Y+1033701D01*
X+2566299Y+1033701D01*
X+2566299Y+1153700D01*
X+2303494Y+1153700D01*
X+2301919Y+1152126D01*
G37*
%LPD*%
G36*
X+286771Y+2787746D02*
X+286771Y+2530364D01*
X+440315Y+2376821D01*
X+440315Y+2248376D01*
X+436378Y+2244439D01*
X+436378Y+2209292D01*
X+316378Y+2209292D01*
X+316378Y+2329291D01*
X+318141Y+2329291D01*
X+277798Y+2369634D01*
X+277798Y+1966497D01*
X+316378Y+1927917D01*
X+316378Y+2029291D01*
X+462048Y+2029291D01*
X+462048Y+2329291D01*
X+582047Y+2329291D01*
X+582047Y+2228616D01*
X+609796Y+2228616D01*
X+658898Y+2277718D01*
X+658898Y+2539715D01*
X+611654Y+2586959D01*
X+611654Y+2641300D01*
X+606654Y+2641300D01*
X+606654Y+2646300D01*
X+432628Y+2646300D01*
X+426329Y+2652599D01*
X+391181Y+2652599D01*
X+391181Y+2872598D01*
X+1129291Y+2872598D01*
X+1129291Y+2652599D01*
X+1094144Y+2652599D01*
X+1087844Y+2646300D01*
X+936653Y+2646300D01*
X+936653Y+2641300D01*
X+931653Y+2641300D01*
X+931653Y+2602381D01*
X+879630Y+2550357D01*
X+879630Y+2430211D01*
X+878897Y+2429478D01*
X+878897Y+2111896D01*
X+801513Y+2034512D01*
X+962048Y+2034512D01*
X+962048Y+2329291D01*
X+1082047Y+2329291D01*
X+1082047Y+2229291D01*
X+1295433Y+2229291D01*
X+1295433Y+2429291D01*
X+1415433Y+2429291D01*
X+1415433Y+1529291D01*
X+1561648Y+1529291D01*
X+1680472Y+1410467D01*
X+1680472Y+670773D01*
X+1520566Y+510867D01*
X+1201063Y+510867D01*
X+1201063Y+432469D01*
X+1526973Y+432469D01*
X+1725827Y+631323D01*
X+1725827Y+1227215D01*
X+1827904Y+1329291D01*
X+1875433Y+1329291D01*
X+1875433Y+2429291D01*
X+1995433Y+2429291D01*
X+1995433Y+2128811D01*
X+2447874Y+2128811D01*
X+2447874Y+2447874D01*
X+2347874Y+2447874D01*
X+2347874Y+2567874D01*
X+2547874Y+2567874D01*
X+2547874Y+2597569D01*
X+2539430Y+2606013D01*
X+2268022Y+2606013D01*
X+2196220Y+2534211D01*
X+2196220Y+2337638D01*
X+2076221Y+2337638D01*
X+2076221Y+2437638D01*
X+1459946Y+2437638D01*
X+1289596Y+2607988D01*
X+1289596Y+2684095D01*
X+1288819Y+2684095D01*
X+1288819Y+2884095D01*
X+383120Y+2884095D01*
X+286771Y+2787746D01*
G37*
G36*
X+1082047Y+1909292D02*
X+1082047Y+1823239D01*
X+1088200Y+1823239D01*
X+1094252Y+1829291D01*
X+1295433Y+1829291D01*
X+1295433Y+2009292D01*
X+1082047Y+2009292D01*
X+1082047Y+1909292D01*
G37*
G36*
X+1995433Y+1509292D02*
X+1995433Y+1328240D01*
X+2191961Y+1328240D01*
X+2417422Y+1553700D01*
X+2446953Y+1553700D01*
X+2446953Y+1607811D01*
X+1995433Y+1607811D01*
X+1995433Y+1509292D01*
G37*
D10*
X+2306953Y+2068811D02*
X+1935913Y+2068811D01*
X+1935433Y+2069291D01*
X+2306953Y+1969811D02*
X+1935953Y+1969811D01*
X+1935433Y+1969291D01*
X+2306953Y+1868811D02*
X+1935913Y+1868811D01*
X+1935433Y+1869291D01*
X+2306953Y+1767811D02*
X+1936913Y+1767811D01*
X+1935433Y+1769291D01*
X+2306953Y+1667811D02*
X+1936913Y+1667811D01*
X+1935433Y+1669291D01*
X+2406953Y+2068811D02*
X+2406953Y+1969811D01*
X+2406953Y+1868811D01*
X+2406953Y+1767811D01*
X+2406953Y+2068811D02*
X+2406953Y+2156039D01*
X+2403937Y+2159055D01*
X+2406953Y+1767811D02*
X+2406953Y+1667811D01*
X+2406953Y+1579394D01*
X+2406122Y+1578563D01*
X+2506953Y+2068811D02*
X+2506953Y+1969811D01*
X+2506953Y+1868811D01*
X+2506953Y+1767811D01*
X+2506953Y+1667811D01*
X+2506953Y+1494354D01*
X+2506299Y+1493701D01*
X+2442274Y+1493701D01*
X+2216814Y+1268241D01*
X+2126650Y+1268241D01*
X+1936484Y+1268241D01*
X+1935433Y+1269291D01*
X+2506299Y+1093701D02*
X+2328346Y+1093701D01*
X+2326772Y+1092126D01*
X+1108661Y+1011811D02*
X+415748Y+1011811D01*
X+663780Y+1111811D02*
X+415748Y+1111811D01*
X+863780Y+1111811D02*
X+1108661Y+1111811D01*
X+811024Y+1351969D02*
X+863780Y+1299213D01*
X+863780Y+1111811D01*
X+711024Y+1351969D02*
X+663780Y+1304724D01*
X+663780Y+1111811D01*
X+1069291Y+2812598D02*
X+451181Y+2812598D01*
X+1069291Y+2712598D02*
X+1062992Y+2706299D01*
X+871654Y+2706299D01*
X+451181Y+2712598D02*
X+457480Y+2706299D01*
X+671654Y+2706299D01*
X+871654Y+2706299D02*
X+871654Y+2627233D01*
X+819630Y+2575209D01*
X+819630Y+2455063D01*
X+818898Y+2454331D01*
X+671654Y+2706299D02*
X+671654Y+2611811D01*
X+718898Y+2564567D01*
X+718898Y+2454331D01*
X+718898Y+2252865D01*
X+634649Y+2168617D01*
X+522722Y+2168617D01*
X+522047Y+2169291D01*
X+818898Y+2454331D02*
X+818898Y+2136748D01*
X+751865Y+2069715D01*
X+522471Y+2069715D01*
X+522047Y+2069291D01*
X+811024Y+1351969D02*
X+811024Y+1688976D01*
X+734646Y+1765354D01*
X+522835Y+1765354D01*
X+522047Y+1764567D01*
X+711024Y+1351969D02*
X+711024Y+1595802D01*
X+642290Y+1664536D01*
X+522078Y+1664536D01*
X+522047Y+1664567D01*
X+1022047Y+1864567D02*
X+1115748Y+1864567D01*
X+1116535Y+1863780D01*
X+1022047Y+2269291D02*
X+1114840Y+2269291D01*
X+1114993Y+2269444D01*
X+1022047Y+2269291D02*
X+927559Y+2269291D01*
X+1022047Y+2273228D02*
X+1078093Y+2329274D01*
X+1078093Y+2329907D01*
X+1022047Y+2269291D02*
X+1022047Y+2273228D01*
X+1022047Y+2351969D01*
X+1022047Y+2269291D02*
X+966393Y+2324946D01*
X+965634Y+2324946D01*
X+522047Y+2269291D02*
X+577165Y+2269291D01*
X+522047Y+2269291D02*
X+522047Y+2312598D01*
X+522047Y+2269291D02*
X+498425Y+2269291D01*
X+522047Y+2269291D02*
X+485031Y+2306308D01*
X+485031Y+2307069D01*
X+522047Y+2269291D02*
X+565354Y+2312598D01*
X+522047Y+1969291D02*
X+376378Y+1969291D01*
X+522047Y+1564567D02*
X+377165Y+1564567D01*
X+376378Y+1563780D01*
X+226772Y+2505512D02*
X+380315Y+2351969D01*
X+380315Y+2273228D01*
X+376378Y+2269291D01*
X+376378Y+1863780D02*
X+295663Y+1863780D01*
X+217798Y+1941645D01*
X+217798Y+2579215D01*
X+226772Y+2588189D01*
X+226772Y+2505512D01*
X+1348819Y+2944094D02*
X+358268Y+2944094D01*
X+226772Y+2812598D01*
X+226772Y+2588189D01*
X+1355433Y+2169291D02*
X+1022047Y+2169291D01*
X+1355433Y+2069291D02*
X+1022047Y+2069291D01*
X+1355433Y+1769291D02*
X+1119105Y+1769291D01*
X+1113052Y+1763239D01*
X+1023375Y+1763239D01*
X+1022047Y+1764567D01*
X+1022047Y+1664567D02*
X+1221160Y+1664567D01*
X+1225764Y+1669171D01*
X+1355313Y+1669171D01*
X+1355433Y+1669291D01*
D11*
X+1596850Y+2863780D02*
X+1672583Y+2863780D01*
X+1673070Y+2864267D01*
X+1596850Y+2863780D02*
X+1551469Y+2863780D01*
X+1551384Y+2863865D01*
X+1596850Y+2863780D02*
X+1631303Y+2829327D01*
X+1631303Y+2827319D01*
X+1596850Y+2859843D02*
X+1593546Y+2859843D01*
X+1563030Y+2829327D01*
X+1596850Y+2863780D02*
X+1596850Y+2859843D01*
X+1596850Y+2828346D01*
D10*
X+1348819Y+2844094D02*
X+1279422Y+2844094D01*
X+1279197Y+2843869D01*
X+1348819Y+2844094D02*
X+1443371Y+2844094D01*
X+1444052Y+2844775D01*
D11*
X+2010236Y+2944094D02*
X+1598425Y+2944094D01*
X+1596850Y+2942520D01*
X+1703150Y+2942520D02*
X+1596850Y+2942520D01*
X+1350394Y+2942520D01*
X+1348819Y+2944094D01*
D10*
X+2010236Y+2744094D02*
X+1934468Y+2744094D01*
X+1933964Y+2744598D01*
X+2010236Y+2744094D02*
X+2010236Y+2690551D01*
X+2010236Y+2744094D02*
X+2062767Y+2744094D01*
X+2063172Y+2743689D01*
X+2010236Y+2744094D02*
X+2051969Y+2702362D01*
X+2053543Y+2702362D01*
X+2010236Y+2744094D02*
X+1973433Y+2707292D01*
X+1972181Y+2707292D01*
D12*
X+2392126Y+3044882D02*
X+2392126Y+3123622D01*
X+2392126Y+3044882D02*
X+2325197Y+3044882D01*
X+2392126Y+3044882D02*
X+2444029Y+3044882D01*
X+2444285Y+3044626D01*
X+2392126Y+3044882D02*
X+2435433Y+3088189D01*
X+2392126Y+3044882D02*
X+2344882Y+3092126D01*
X+2392126Y+3033071D02*
X+2410322Y+3014875D01*
X+2419998Y+3014875D01*
X+2392126Y+3044882D02*
X+2392126Y+3033071D01*
X+2392126Y+3009449D01*
X+2392126Y+3044882D02*
X+2348522Y+3001278D01*
X+2348522Y+2999636D01*
D10*
X+2392126Y+2844882D02*
X+2011024Y+2844882D01*
X+2010236Y+2844094D01*
X+2136220Y+2497638D02*
X+1484799Y+2497638D01*
X+1349596Y+2632841D01*
X+1349596Y+2743317D01*
X+1348819Y+2744094D01*
X+2136220Y+2397638D02*
X+2188385Y+2397638D01*
X+2188662Y+2397361D01*
X+2136220Y+2397638D02*
X+2136220Y+2363780D01*
X+2136220Y+2397638D02*
X+2162205Y+2371654D01*
X+2163780Y+2371654D01*
X+2136220Y+2397638D02*
X+2134646Y+2397638D01*
X+2100787Y+2363780D01*
X+2134646Y+2397638D02*
X+2105421Y+2397638D01*
X+2105144Y+2397915D01*
X+2226772Y+1092126D02*
X+2226772Y+1155118D01*
X+2226772Y+1092126D02*
X+2226772Y+1048819D01*
X+2226772Y+1092126D02*
X+2168316Y+1092126D01*
X+2167012Y+1090822D01*
X+2226772Y+1092126D02*
X+2183280Y+1135618D01*
X+2183280Y+1137712D01*
X+2226772Y+1092126D02*
X+2181449Y+1046803D01*
X+2181366Y+1046803D01*
X+1935433Y+1069291D02*
X+1934646Y+1068504D01*
X+1892126Y+1068504D01*
X+1935433Y+1069291D02*
X+1980887Y+1069291D01*
X+1981366Y+1069770D01*
X+522047Y+1864567D02*
X+486519Y+1864567D01*
X+486085Y+1865000D01*
X+2507874Y+2507874D02*
X+2507874Y+2069465D01*
X+2508528Y+2068811D01*
X+2506953Y+2068811D01*
X+2607874Y+2507874D02*
X+2607874Y+2622421D01*
X+2564283Y+2666012D01*
X+2243170Y+2666012D01*
X+2206507Y+2629350D01*
X+2136220Y+2559063D01*
X+2136220Y+2497638D01*
X+1355433Y+1369291D02*
X+1445669Y+1369291D01*
X+1498425Y+1316535D01*
X+1498425Y+820070D01*
X+1349421Y+671067D01*
X+1141532Y+671067D01*
X+1141063Y+671535D01*
X+1355433Y+1469291D02*
X+1536795Y+1469291D01*
X+1620472Y+1385614D01*
X+1620472Y+695625D01*
X+1495713Y+570866D01*
X+1141732Y+570866D01*
X+1141063Y+571535D01*
X+1935433Y+1269291D02*
X+1852756Y+1269291D01*
X+1785827Y+1202362D01*
X+1785827Y+606470D01*
X+1551826Y+372469D01*
X+1141998Y+372469D01*
X+1141063Y+371535D01*
X+1122047Y+471535D02*
X+1141063Y+471535D01*
X+1219567Y+471535D01*
X+1220472Y+472441D01*
X+1122047Y+471535D02*
X+1083583Y+471535D01*
X+1082677Y+472441D01*
D13*
X+32937Y+31496D02*
X+2968504Y+31496D01*
X+2968504Y+3511811D01*
X+32937Y+3511811D01*
X+32937Y+31496D01*
X+1288819Y+3004094D02*
X+333415Y+3004094D01*
X+166772Y+2837451D01*
X+166772Y+2613041D01*
X+157798Y+2604068D01*
X+157798Y+1916793D01*
X+270811Y+1803780D01*
X+436378Y+1803780D01*
X+436378Y+1909292D01*
X+462048Y+1909292D01*
X+462048Y+1624567D01*
X+352313Y+1624567D01*
X+351526Y+1623779D01*
X+316378Y+1623779D01*
X+316378Y+1503780D01*
X+436378Y+1503780D01*
X+436378Y+1504567D01*
X+582047Y+1504567D01*
X+582047Y+1604536D01*
X+617438Y+1604536D01*
X+651024Y+1570950D01*
X+651024Y+1376821D01*
X+603780Y+1329577D01*
X+603780Y+1176811D01*
X+598780Y+1176811D01*
X+598780Y+1171811D01*
X+355748Y+1171811D01*
X+355748Y+951811D01*
X+1168661Y+951811D01*
X+1168661Y+1171811D01*
X+1048662Y+1171811D01*
X+986220Y+1171810D01*
X+928779Y+1171811D01*
X+928779Y+1176811D01*
X+923779Y+1176811D01*
X+923779Y+1324065D01*
X+871023Y+1376821D01*
X+871023Y+1713829D01*
X+785506Y+1799346D01*
X+962048Y+1799346D01*
X+962048Y+1504567D01*
X+1082047Y+1504567D01*
X+1082047Y+1604567D01*
X+1246012Y+1604567D01*
X+1250617Y+1609172D01*
X+1295433Y+1609172D01*
X+1295433Y+909292D01*
X+1415433Y+909292D01*
X+1415433Y+1309292D01*
X+1420817Y+1309292D01*
X+1438426Y+1291683D01*
X+1438426Y+844923D01*
X+1324569Y+731066D01*
X+1201063Y+731066D01*
X+1201063Y+731535D01*
X+1081064Y+731535D01*
X+1081064Y+311535D01*
X+1201063Y+311535D01*
X+1201063Y+312470D01*
X+1576678Y+312470D01*
X+1845826Y+581618D01*
X+1845826Y+1177510D01*
X+1875433Y+1207117D01*
X+1875433Y+909292D01*
X+1995433Y+909292D01*
X+1995433Y+1208241D01*
X+2241666Y+1208241D01*
X+2467126Y+1433701D01*
X+2566299Y+1433701D01*
X+2566299Y+1468848D01*
X+2566952Y+1469502D01*
X+2566952Y+2053074D01*
X+2579302Y+2082889D01*
X+2567874Y+2094317D01*
X+2567874Y+2447874D01*
X+2667874Y+2447874D01*
X+2667874Y+2647273D01*
X+2589135Y+2726012D01*
X+2218317Y+2726012D01*
X+2076221Y+2583915D01*
X+2076221Y+2557637D01*
X+1509651Y+2557637D01*
X+1409596Y+2657693D01*
X+1409596Y+2768170D01*
X+1408819Y+2768947D01*
X+1408819Y+2892520D01*
X+1545851Y+2892520D01*
X+1545851Y+2812780D01*
X+1647850Y+2812780D01*
X+1647850Y+2892520D01*
X+1723860Y+2892520D01*
X+1725435Y+2894095D01*
X+1950237Y+2894095D01*
X+1950237Y+2684095D01*
X+2070236Y+2684095D01*
X+2070236Y+2784882D01*
X+2327126Y+2784882D01*
X+2327126Y+2779882D01*
X+2457126Y+2779882D01*
X+2457126Y+2909881D01*
X+2327126Y+2909881D01*
X+2327126Y+2904881D01*
X+2070236Y+2904881D01*
X+2070236Y+3004094D01*
X+1950237Y+3004094D01*
X+1950237Y+2994094D01*
X+1577715Y+2994094D01*
X+1577141Y+2993519D01*
X+1545851Y+2993519D01*
X+1545851Y+2992519D01*
X+1408819Y+2992519D01*
X+1408819Y+3004094D01*
X+1288819Y+3004094D01*
X+1288819Y+3004094D01*
X+2719121Y+2424424D02*
X+2715784Y+2424043D01*
X+2712623Y+2422910D01*
X+2692068Y+2415541D01*
X+2670248Y+2401173D01*
X+2663208Y+2393456D01*
X+2651593Y+2380724D01*
X+2637600Y+2353008D01*
X+2636194Y+2344389D01*
X+2632034Y+2318898D01*
X+2632796Y+2314228D01*
X+2637600Y+2284787D01*
X+2639614Y+2280798D01*
X+2651593Y+2257072D01*
X+2670248Y+2236622D01*
X+2692068Y+2222255D01*
X+2715784Y+2213752D01*
X+2719121Y+2213371D01*
X+2740157Y+2210969D01*
X+2764531Y+2213752D01*
X+2767692Y+2214885D01*
X+2788247Y+2222255D01*
X+2810067Y+2236622D01*
X+2817107Y+2244339D01*
X+2828722Y+2257072D01*
X+2842715Y+2284787D01*
X+2844121Y+2293407D01*
X+2848281Y+2318898D01*
X+2847519Y+2323568D01*
X+2842715Y+2353008D01*
X+2840701Y+2356998D01*
X+2828722Y+2380724D01*
X+2810067Y+2401173D01*
X+2788247Y+2415541D01*
X+2764531Y+2424043D01*
X+2761194Y+2424424D01*
X+2740157Y+2426826D01*
X+2719121Y+2424424D01*
X+2717546Y+1329936D02*
X+2714209Y+1329555D01*
X+2711048Y+1328422D01*
X+2690493Y+1321052D01*
X+2668673Y+1306685D01*
X+2661633Y+1298968D01*
X+2650018Y+1286235D01*
X+2636025Y+1258520D01*
X+2634619Y+1249900D01*
X+2630459Y+1224409D01*
X+2631221Y+1219739D01*
X+2636025Y+1190299D01*
X+2638039Y+1186309D01*
X+2650018Y+1162583D01*
X+2668673Y+1142134D01*
X+2690493Y+1127767D01*
X+2714209Y+1119264D01*
X+2717546Y+1118883D01*
X+2738583Y+1116481D01*
X+2762956Y+1119264D01*
X+2766117Y+1120397D01*
X+2786672Y+1127767D01*
X+2808493Y+1142134D01*
X+2815532Y+1149851D01*
X+2827147Y+1162583D01*
X+2841140Y+1190299D01*
X+2842546Y+1198919D01*
X+2846706Y+1224409D01*
X+2845944Y+1229080D01*
X+2841140Y+1258520D01*
X+2839126Y+1262509D01*
X+2827147Y+1286235D01*
X+2808493Y+1306685D01*
X+2786672Y+1321052D01*
X+2762956Y+1329555D01*
X+2759619Y+1329936D01*
X+2738583Y+1332338D01*
X+2717546Y+1329936D01*
X+2327126Y+3109881D02*
X+2457126Y+3109881D01*
X+2457126Y+2979882D01*
X+2327126Y+2979882D01*
X+2327126Y+3109881D01*
X+2301919Y+1152126D02*
X+2166772Y+1152126D01*
X+2166772Y+1032126D01*
X+2386771Y+1032126D01*
X+2386771Y+1033701D01*
X+2566299Y+1033701D01*
X+2566299Y+1153700D01*
X+2303494Y+1153700D01*
X+2301919Y+1152126D01*
X+286771Y+2787746D02*
X+286771Y+2530364D01*
X+440315Y+2376821D01*
X+440315Y+2248376D01*
X+436378Y+2244439D01*
X+436378Y+2209292D01*
X+316378Y+2209292D01*
X+316378Y+2329291D01*
X+318141Y+2329291D01*
X+277798Y+2369634D01*
X+277798Y+1966497D01*
X+316378Y+1927917D01*
X+316378Y+2029291D01*
X+462048Y+2029291D01*
X+462048Y+2329291D01*
X+582047Y+2329291D01*
X+582047Y+2228616D01*
X+609796Y+2228616D01*
X+658898Y+2277718D01*
X+658898Y+2539715D01*
X+611654Y+2586959D01*
X+611654Y+2641300D01*
X+606654Y+2641300D01*
X+606654Y+2646300D01*
X+432628Y+2646300D01*
X+426329Y+2652599D01*
X+391181Y+2652599D01*
X+391181Y+2872598D01*
X+1129291Y+2872598D01*
X+1129291Y+2652599D01*
X+1094144Y+2652599D01*
X+1087844Y+2646300D01*
X+936653Y+2646300D01*
X+936653Y+2641300D01*
X+931653Y+2641300D01*
X+931653Y+2602381D01*
X+879630Y+2550357D01*
X+879630Y+2430211D01*
X+878897Y+2429478D01*
X+878897Y+2111896D01*
X+801513Y+2034512D01*
X+962048Y+2034512D01*
X+962048Y+2329291D01*
X+1082047Y+2329291D01*
X+1082047Y+2229291D01*
X+1295433Y+2229291D01*
X+1295433Y+2429291D01*
X+1415433Y+2429291D01*
X+1415433Y+1529291D01*
X+1561648Y+1529291D01*
X+1680472Y+1410467D01*
X+1680472Y+670773D01*
X+1520566Y+510867D01*
X+1201063Y+510867D01*
X+1201063Y+432469D01*
X+1526973Y+432469D01*
X+1725827Y+631323D01*
X+1725827Y+1227215D01*
X+1827904Y+1329291D01*
X+1875433Y+1329291D01*
X+1875433Y+2429291D01*
X+1995433Y+2429291D01*
X+1995433Y+2128811D01*
X+2447874Y+2128811D01*
X+2447874Y+2447874D01*
X+2347874Y+2447874D01*
X+2347874Y+2567874D01*
X+2547874Y+2567874D01*
X+2547874Y+2597569D01*
X+2539430Y+2606013D01*
X+2268022Y+2606013D01*
X+2196220Y+2534211D01*
X+2196220Y+2337638D01*
X+2076221Y+2337638D01*
X+2076221Y+2437638D01*
X+1459946Y+2437638D01*
X+1289596Y+2607988D01*
X+1289596Y+2684095D01*
X+1288819Y+2684095D01*
X+1288819Y+2884095D01*
X+383120Y+2884095D01*
X+286771Y+2787746D01*
X+1082047Y+1909292D02*
X+1082047Y+1823239D01*
X+1088200Y+1823239D01*
X+1094252Y+1829291D01*
X+1295433Y+1829291D01*
X+1295433Y+2009292D01*
X+1082047Y+2009292D01*
X+1082047Y+1909292D01*
X+1995433Y+1509292D02*
X+1995433Y+1328240D01*
X+2191961Y+1328240D01*
X+2417422Y+1553700D01*
X+2446953Y+1553700D01*
X+2446953Y+1607811D01*
X+1995433Y+1607811D01*
X+1995433Y+1509292D01*
D14*
X+1415433Y+1269291D02*
X+1355433Y+1269291D01*
X+1295433Y+1269291D02*
X+1355433Y+1269291D01*
X+1995433Y+1069291D02*
X+1935433Y+1069291D01*
X+1875433Y+1069291D02*
X+1935433Y+1069291D01*
X+2406953Y+2128811D02*
X+2406953Y+2068811D01*
X+2327126Y+3044882D02*
X+2392126Y+3044882D01*
X+2457126Y+3044882D02*
X+2392126Y+3044882D01*
X+2392126Y+3109881D02*
X+2392126Y+3044882D01*
X+2392126Y+2979882D02*
X+2392126Y+3044882D01*
X+2010236Y+2684095D02*
X+2010236Y+2744094D01*
X+1950237Y+2744094D02*
X+2010236Y+2744094D01*
X+2070236Y+2744094D02*
X+2010236Y+2744094D01*
X+1408819Y+2844094D02*
X+1348819Y+2844094D01*
X+1288819Y+2844094D02*
X+1348819Y+2844094D01*
X+1081064Y+471535D02*
X+1141063Y+471535D01*
X+1201063Y+471535D02*
X+1141063Y+471535D01*
X+2166772Y+1092126D02*
X+2226772Y+1092126D01*
X+2226772Y+1032126D02*
X+2226772Y+1092126D01*
X+2226772Y+1152126D02*
X+2226772Y+1092126D01*
X+962048Y+2269291D02*
X+1022047Y+2269291D01*
X+1082047Y+2269291D02*
X+1022047Y+2269291D01*
X+1022047Y+2329291D02*
X+1022047Y+2269291D01*
X+462048Y+2269291D02*
X+522047Y+2269291D01*
X+582047Y+2269291D02*
X+522047Y+2269291D01*
X+522047Y+2329291D02*
X+522047Y+2269291D01*
X+1082047Y+1864567D02*
X+1022047Y+1864567D01*
X+462048Y+1864567D02*
X+522047Y+1864567D01*
X+2136220Y+2337638D02*
X+2136220Y+2397638D01*
X+2076221Y+2397638D02*
X+2136220Y+2397638D01*
X+2196220Y+2397638D02*
X+2136220Y+2397638D01*
X+1596850Y+2812780D02*
X+1596850Y+2863780D01*
X+1545851Y+2863780D02*
X+1596850Y+2863780D01*
X+1647850Y+2863780D02*
X+1596850Y+2863780D01*
X+2406953Y+1607811D02*
X+2406953Y+1667811D01*
D15*
X+1935433Y+2269291D03*
X+1935433Y+1269291D03*
X+1935433Y+2069291D03*
X+1935433Y+1969291D03*
X+1935433Y+1869291D03*
X+1935433Y+1769291D03*
X+1935433Y+1669291D03*
X+1935433Y+1569291D03*
X+1935433Y+1469291D03*
X+1935433Y+1369291D03*
X+1355433Y+1369291D03*
X+1355433Y+1469291D03*
X+1355433Y+1569291D03*
X+1355433Y+1669291D03*
X+1355433Y+1769291D03*
X+1355433Y+1869291D03*
X+1355433Y+1969291D03*
X+1355433Y+2069291D03*
X+1355433Y+2169291D03*
X+1355433Y+2269291D03*
X+1355433Y+2369291D03*
X+1935433Y+2369291D03*
X+1355433Y+1269291D03*
X+1935433Y+1069291D03*
X+1935433Y+2169291D03*
X+1355433Y+1169291D03*
X+1935433Y+1169291D03*
X+1355433Y+1069291D03*
X+1355433Y+969291D03*
X+1935433Y+969291D03*
X+2506953Y+1767811D03*
X+2406953Y+1767811D03*
X+2306953Y+1767811D03*
X+2506953Y+1868811D03*
X+2406953Y+1868811D03*
X+2306953Y+1868811D03*
X+2506953Y+1969811D03*
X+2406953Y+1969811D03*
X+2306953Y+1969811D03*
X+2506953Y+2068811D03*
X+2406953Y+2068811D03*
X+2306953Y+2068811D03*
D16*
X+2392126Y+2844882D03*
X+2392126Y+3044882D03*
D15*
X+2010236Y+2744094D03*
X+2010236Y+2844094D03*
X+2010236Y+2944094D03*
X+1348819Y+2944094D03*
X+1348819Y+2844094D03*
X+1348819Y+2744094D03*
X+1141063Y+371535D03*
X+1141063Y+471535D03*
X+1141063Y+571535D03*
X+1141063Y+671535D03*
X+2607874Y+2507874D03*
X+2507874Y+2507874D03*
X+2407874Y+2507874D03*
X+2506299Y+1493701D03*
X+2506299Y+1093701D03*
X+2326772Y+1092126D03*
X+2226772Y+1092126D03*
X+1022047Y+2269291D03*
X+522047Y+2269291D03*
X+1022047Y+1969291D03*
X+1022047Y+2069291D03*
X+1022047Y+2169291D03*
X+522047Y+2069291D03*
X+522047Y+2169291D03*
X+522047Y+1969291D03*
X+1022047Y+1864567D03*
X+522047Y+1864567D03*
X+1022047Y+1564567D03*
X+1022047Y+1664567D03*
X+1022047Y+1764567D03*
X+522047Y+1664567D03*
X+522047Y+1764567D03*
X+522047Y+1564567D03*
X+2136220Y+2497638D03*
X+2136220Y+2397638D03*
D17*
X+1596850Y+2942520D03*
X+1596850Y+2863780D03*
D15*
X+1069291Y+2812598D03*
X+1069291Y+2712598D03*
X+818898Y+2454331D03*
X+718898Y+2454331D03*
X+451181Y+2812598D03*
X+451181Y+2712598D03*
X+415748Y+1011811D03*
X+415748Y+1111811D03*
X+711024Y+1351969D03*
X+811024Y+1351969D03*
X+1108661Y+1011811D03*
X+1108661Y+1111811D03*
X+376378Y+1863780D03*
X+376378Y+1563780D03*
X+376378Y+2269291D03*
X+376378Y+1969291D03*
D16*
X+671654Y+2706299D03*
X+871654Y+2706299D03*
X+863780Y+1111811D03*
X+663780Y+1111811D03*
D15*
X+2506953Y+1667811D03*
X+2406953Y+1667811D03*
X+2306953Y+1667811D03*
D18*
X+3937Y+2496D02*
X+2997504Y+2496D01*
X+2997504Y+3540811D01*
X+3937Y+3540811D01*
X+3937Y+2496D01*
X+581102Y+1828346D02*
X+962992Y+1828346D01*
X+962992Y+2005512D01*
X+581102Y+2005512D01*
X+581102Y+1828346D01*
X+2818897Y+2318898D02*
X+2818608Y+2325636D01*
X+2816258Y+2339113D01*
X+2811325Y+2352590D01*
X+2803205Y+2366067D01*
X+2790866Y+2379136D01*
X+2777389Y+2388279D01*
X+2763912Y+2393969D01*
X+2750435Y+2396964D01*
X+2740157Y+2397638D01*
X+2661417Y+2318898D02*
X+2661706Y+2325636D01*
X+2664056Y+2339113D01*
X+2668989Y+2352590D01*
X+2677109Y+2366067D01*
X+2689448Y+2379136D01*
X+2702925Y+2388279D01*
X+2716402Y+2393969D01*
X+2729879Y+2396964D01*
X+2740157Y+2397638D01*
X+2661417Y+2318898D02*
X+2661706Y+2312160D01*
X+2664056Y+2298683D01*
X+2668989Y+2285206D01*
X+2677109Y+2271729D01*
X+2689448Y+2258660D01*
X+2702925Y+2249517D01*
X+2716402Y+2243827D01*
X+2729879Y+2240832D01*
X+2740157Y+2240158D01*
X+2818897Y+2318898D02*
X+2818608Y+2312160D01*
X+2816258Y+2298683D01*
X+2811325Y+2285206D01*
X+2803205Y+2271729D01*
X+2790866Y+2258660D01*
X+2777389Y+2249517D01*
X+2763912Y+2243827D01*
X+2750435Y+2240832D01*
X+2740157Y+2240158D01*
X+2817323Y+1224409D02*
X+2817034Y+1231147D01*
X+2814684Y+1244624D01*
X+2809751Y+1258101D01*
X+2801631Y+1271578D01*
X+2789292Y+1284647D01*
X+2775815Y+1293790D01*
X+2762338Y+1299480D01*
X+2748861Y+1302475D01*
X+2738583Y+1303149D01*
X+2659843Y+1224409D02*
X+2660132Y+1231147D01*
X+2662482Y+1244624D01*
X+2667415Y+1258101D01*
X+2675535Y+1271578D01*
X+2687874Y+1284647D01*
X+2701351Y+1293790D01*
X+2714828Y+1299480D01*
X+2728305Y+1302475D01*
X+2738583Y+1303149D01*
X+2659843Y+1224409D02*
X+2660132Y+1217671D01*
X+2662482Y+1204194D01*
X+2667415Y+1190717D01*
X+2675535Y+1177240D01*
X+2687874Y+1164171D01*
X+2701351Y+1155028D01*
X+2714828Y+1149338D01*
X+2728305Y+1146343D01*
X+2738583Y+1145669D01*
X+2817323Y+1224409D02*
X+2817034Y+1217671D01*
X+2814684Y+1204194D01*
X+2809751Y+1190717D01*
X+2801631Y+1177240D01*
X+2789292Y+1164171D01*
X+2775815Y+1155028D01*
X+2762338Y+1149338D01*
X+2748861Y+1146343D01*
X+2738583Y+1145669D01*
M02*
