M48
INCH,TZ
T01C0.0400
T02C0.0500
T03C0.0300
%
T01
X+19354Y+22693
X+19354Y+12693
X+19354Y+20693
X+19354Y+19693
X+19354Y+18693
X+19354Y+17693
X+19354Y+16693
X+19354Y+15693
X+19354Y+14693
X+19354Y+13693
X+13554Y+13693
X+13554Y+14693
X+13554Y+15693
X+13554Y+16693
X+13554Y+17693
X+13554Y+18693
X+13554Y+19693
X+13554Y+20693
X+13554Y+21693
X+13554Y+22693
X+13554Y+23693
X+19354Y+23693
X+13554Y+12693
X+19354Y+10693
X+19354Y+21693
X+13554Y+11693
X+19354Y+11693
X+13554Y+10693
X+13554Y+9693
X+19354Y+9693
X+25070Y+17678
X+24070Y+17678
X+23070Y+17678
X+25070Y+18688
X+24070Y+18688
X+23070Y+18688
X+25070Y+19698
X+24070Y+19698
X+23070Y+19698
X+25070Y+20688
X+24070Y+20688
X+23070Y+20688
X+20102Y+27441
X+20102Y+28441
X+20102Y+29441
X+13488Y+29441
X+13488Y+28441
X+13488Y+27441
X+11411Y+3715
X+11411Y+4715
X+11411Y+5715
X+11411Y+6715
X+26079Y+25079
X+25079Y+25079
X+24079Y+25079
X+23268Y+10921
X+22268Y+10921
X+10220Y+22693
X+5220Y+22693
X+10220Y+19693
X+10220Y+20693
X+10220Y+21693
X+5220Y+20693
X+5220Y+21693
X+5220Y+19693
X+10220Y+18646
X+5220Y+18646
X+10220Y+15646
X+10220Y+16646
X+10220Y+17646
X+5220Y+16646
X+5220Y+17646
X+5220Y+15646
X+25070Y+16678
X+24070Y+16678
X+23070Y+16678
T02
X+23921Y+28449
X+23921Y+30449
X+25063Y+14937
X+25063Y+10937
X+21362Y+24976
X+21362Y+23976
X+10693Y+28126
X+10693Y+27126
X+8189Y+24543
X+7189Y+24543
X+4512Y+28126
X+4512Y+27126
X+4157Y+10118
X+4157Y+11118
X+7110Y+13520
X+8110Y+13520
X+11087Y+10118
X+11087Y+11118
X+3764Y+18638
X+3764Y+15638
X+3764Y+22693
X+3764Y+19693
X+6717Y+27063
X+8717Y+27063
X+8638Y+11118
X+6638Y+11118
T03
X+15969Y+29425
X+15969Y+28638
M30
